# xmcd
#
# Track frame offsets: 
#        150
#        12000
#        24750
#        35475
#        48000
#        61500
#        75375
#        91425
#        108825
#        121500
#        133425
#        146325
#        158025
#        173175
#        187050
#        202050
#
# Disc length: 2894 seconds
#
# Revision: 3
# Processed by: cddbd v1.5.2PL0 Copyright (c) Steve Scherf et al.
# Submitted via: ExactAudioCopyFreeDBPlugin 1.0
#
DISCID=c00b4c10
DTITLE=Collection - Country Boys and Country Girls
DYEAR=1989
DGENRE=Country
TTITLE0=Osborne Brothers - Rocky Top
TTITLE1=Donna Fargo - Funny Face
TTITLE2=Billy "Crash" Craddock - Ruby Baby
TTITLE3=Loretta Lynn - I've Got A Picture Of Us On My Mind
TTITLE4=Oak Ridge Boys - Leaving Louisianna In The Broad Daylight
TTITLE5=Tanya Tucker - Lizzie And The Rainman
TTITLE6=Billy Anderson - Nashville Mirrors
TTITLE7=Billie Jo Spears - Blanket On The Ground
TTITLE8=Don Williams - Some Broken Hearts Never Mend
TTITLE9=Conway Twitty and Loretta Lynn - After The Fire Is Gone
TTITLE10=Tommy Overstreet - Send Me No Roses
TTITLE11=Patsy Cline - Walkin' After Midnight
TTITLE12=John Conley - Rose Colored Glasses
TTITLE13=Barbara Mandrell - (If Loving You Is Wrong) I Don't Wanna Be 
TTITLE13=Right
TTITLE14=Roy Clark - Yesterday When I Was Young
TTITLE15=Jeanne Pruett - Satin Sheets
EXTD=
EXTT0=Osborne Brothers\n
EXTT1=Donna Fargo\n
EXTT2=Billy Crash Craddock\n
EXTT3=Loretta Lynn\n
EXTT4=Oak Ridge Boys\n
EXTT5=Tanya Tucker\n
EXTT6=Bill Anderson\n
EXTT7=Billie Joe Spears\n
EXTT8=Don Williams\n
EXTT9=Conway Twitty and Loretta Lynn\n
EXTT10=Tommy Overstreet\n
EXTT11=Patsy Cline\n
EXTT12=John Conley\n
EXTT13=Barbara Mandrell\n
EXTT14=Roy Clark\n
EXTT15=Jeanne Pruett\n
PLAYORDER=
